<svg width="130" height="24" viewBox="0 0 130 24" fill="none" xmlns="http://www.w3.org/2000/svg">
<path d="M32.9389 22.3771H30.495V0.307163H32.9389V22.3771ZM129.5 7.00516C128.954 6.87679 128.471 6.76218 127.557 6.76218C125.081 6.76218 122.737 8.78395 121.932 10.8195V7.06017H119.488V22.3725H121.932V15.7891C121.932 12.0848 123.907 9.10487 127.366 9.10487C128.189 9.10487 128.786 9.21031 129.495 9.4212V7.00516H129.5ZM46.6462 13.6069C47.0922 10.8149 49.2084 9.01318 52.0709 9.01318C54.9607 9.01318 57.0769 10.7828 57.4956 13.6069H46.6462ZM44.1432 14.7209C44.1432 19.3742 47.4836 22.6797 52.3712 22.6797C56.0984 22.6797 58.1827 21.0292 58.8699 20.3095L57.4091 18.5077C56.9312 18.9295 55.3521 20.4287 52.4031 20.4287C49.2448 20.4287 47.0103 18.5673 46.6189 15.6562H59.9121C59.9439 15.3582 59.9712 15.0877 59.9712 14.7255C59.9712 10.1318 56.7219 6.76676 52.0709 6.76676C47.4517 6.76218 44.1432 10.1226 44.1432 14.7209ZM95.0451 13.6069C95.4911 10.8149 97.6072 9.01318 100.47 9.01318C103.36 9.01318 105.476 10.7828 105.894 13.6069H95.0451ZM92.5421 14.7209C92.5421 19.3742 95.8825 22.6797 100.77 22.6797C104.497 22.6797 106.582 21.0292 107.269 20.3095L105.808 18.5077C105.33 18.9295 103.751 20.4287 100.802 20.4287C97.6437 20.4287 95.4092 18.5673 95.0178 15.6562H108.311C108.343 15.3582 108.37 15.0877 108.37 14.7255C108.37 10.1318 105.121 6.76676 100.47 6.76676C95.8506 6.76218 92.5421 10.1226 92.5421 14.7209ZM81.9658 7.06017L76.3045 18.9341L70.6386 7.06017H67.9581L76.2908 24L84.6235 7.06017H81.9658ZM17.8572 17.6871C16.278 19.2275 14.1254 20.1811 11.7498 20.1811C6.90313 20.1811 2.97114 16.2201 2.97114 11.3375C2.97114 6.45501 6.90313 2.49398 11.7498 2.49398C14.0754 2.49398 16.187 3.4063 17.757 4.89169L19.4727 3.09914C17.4567 1.17822 14.7443 0 11.7498 0C5.53785 0 0.5 5.07507 0.5 11.333C0.5 17.5908 5.53785 22.6659 11.7498 22.6659C14.7944 22.6659 17.5568 21.4464 19.582 19.4659L17.8572 17.6871Z" fill="white"/>
</svg>
