<svg width="100%" height="100%" viewBox="0 0 79 204" fill="none" xmlns="http://www.w3.org/2000/svg">
<g clip-path="url(#clip0_82_1426)">
<path d="M74.3153 199.524H22.2114V203.845H74.3153V199.524Z" fill="#F2F5F5"/>
<path fill-rule="evenodd" clip-rule="evenodd" d="M77.3489 199.524H18.9049C18.5648 199.524 18.237 199.398 17.9864 199.171C17.7358 198.944 17.5807 198.632 17.5516 198.297L0.169884 1.61617C0.153217 1.43111 0.175718 1.24465 0.235962 1.06866C0.296206 0.892674 0.392856 0.731014 0.519778 0.593994C0.646699 0.456973 0.801094 0.347593 0.973134 0.272813C1.14517 0.198034 1.33111 0.159505 1.51904 0.159668H77.4979C77.676 0.159668 77.8523 0.194399 78.0167 0.261888C78.1812 0.329377 78.3306 0.428289 78.4563 0.552953C78.582 0.677618 78.6816 0.825589 78.7494 0.988377C78.8171 1.15117 78.8518 1.32558 78.8512 1.50161L78.7105 198.19C78.7099 198.366 78.6743 198.541 78.6055 198.703C78.5367 198.865 78.4362 199.013 78.3098 199.137C78.1833 199.261 78.0332 199.359 77.8684 199.425C77.7035 199.492 77.527 199.525 77.3489 199.524V199.524Z" fill="#F2F5F5" stroke="#335F5B" stroke-miterlimit="10"/>
<path d="M74.3151 199.524H22.2113V203.845H74.3151V199.524Z" stroke="#335F5B" stroke-miterlimit="10"/>
<path fill-rule="evenodd" clip-rule="evenodd" d="M77.3487 199.524H18.9046C18.5645 199.524 18.2368 199.398 17.9862 199.171C17.7356 198.944 17.5804 198.632 17.5514 198.297L0.16964 1.61617C0.152972 1.43111 0.175474 1.24465 0.235718 1.06866C0.295962 0.892674 0.392612 0.731014 0.519534 0.593994C0.646455 0.456973 0.80085 0.347593 0.97289 0.272813C1.14493 0.198034 1.33086 0.159505 1.5188 0.159668H77.4977C77.6757 0.159668 77.852 0.194399 78.0165 0.261888C78.181 0.329377 78.3303 0.428289 78.4561 0.552953C78.5818 0.677618 78.6814 0.825589 78.7491 0.988377C78.8169 1.15117 78.8515 1.32558 78.851 1.50161L78.7102 198.19C78.7097 198.366 78.674 198.541 78.6053 198.703C78.5365 198.865 78.436 199.013 78.3095 199.137C78.183 199.261 78.033 199.359 77.8681 199.425C77.7033 199.492 77.5268 199.525 77.3487 199.524V199.524Z" stroke="#335F5B" stroke-miterlimit="10"/>
<path d="M78.8303 10.8706H0.980835" stroke="#335F5B" stroke-miterlimit="10"/>
<path d="M78.8302 9.56152H0.864868" stroke="#335F5B" stroke-miterlimit="10"/>
<path d="M78.7103 188.592H16.6947" stroke="#335F5B" stroke-miterlimit="10"/>
<path d="M78.7061 189.934H16.8105" stroke="#335F5B" stroke-miterlimit="10"/>
<path d="M27.4424 83.54H59.3834V65.4361H27.4424L27.4424 83.54Z" stroke="#335F5B" stroke-miterlimit="10"/>
<path d="M25.0048 95.4952H61.8376C62.4961 95.4952 63.1277 95.2365 63.5933 94.7762C64.059 94.3158 64.3207 93.6914 64.3207 93.0404V63.0349C64.3207 62.3838 64.059 61.7594 63.5933 61.2991C63.1277 60.8387 62.4961 60.5801 61.8376 60.5801H25.0048C24.3463 60.5801 23.7147 60.8387 23.249 61.2991C22.7833 61.7594 22.5217 62.3838 22.5217 63.0349V93.0527C22.5217 93.7037 22.7833 94.3281 23.249 94.7885C23.7147 95.2488 24.3463 95.5074 25.0048 95.5074" stroke="#335F5B" stroke-miterlimit="10"/>
<path d="M55.4559 87.9465C56.1599 87.9465 56.7306 87.3823 56.7306 86.6864C56.7306 85.9904 56.1599 85.4263 55.4559 85.4263C54.752 85.4263 54.1813 85.9904 54.1813 86.6864C54.1813 87.3823 54.752 87.9465 55.4559 87.9465Z" stroke="#335F5B" stroke-miterlimit="10"/>
<path d="M47.4272 87.9465C48.1312 87.9465 48.7019 87.3823 48.7019 86.6864C48.7019 85.9904 48.1312 85.4263 47.4272 85.4263C46.7233 85.4263 46.1526 85.9904 46.1526 86.6864C46.1526 87.3823 46.7233 87.9465 47.4272 87.9465Z" stroke="#335F5B" stroke-miterlimit="10"/>
<path d="M39.4027 87.9465C40.1067 87.9465 40.6774 87.3823 40.6774 86.6864C40.6774 85.9904 40.1067 85.4263 39.4027 85.4263C38.6987 85.4263 38.1281 85.9904 38.1281 86.6864C38.1281 87.3823 38.6987 87.9465 39.4027 87.9465Z" stroke="#335F5B" stroke-miterlimit="10"/>
<path d="M31.374 87.9465C32.078 87.9465 32.6487 87.3823 32.6487 86.6864C32.6487 85.9904 32.078 85.4263 31.374 85.4263C30.67 85.4263 30.0994 85.9904 30.0994 86.6864C30.0994 87.3823 30.67 87.9465 31.374 87.9465Z" stroke="#335F5B" stroke-miterlimit="10"/>
<path d="M43.4172 90.6506C43.6235 90.6506 43.8251 90.711 43.9966 90.8243C44.1681 90.9376 44.3017 91.0986 44.3807 91.287C44.4596 91.4754 44.4803 91.6827 44.44 91.8827C44.3998 92.0827 44.3005 92.2664 44.1546 92.4106C44.0088 92.5548 43.8229 92.653 43.6206 92.6928C43.4183 92.7325 43.2087 92.7121 43.0181 92.6341C42.8275 92.5561 42.6646 92.4239 42.55 92.2544C42.4354 92.0848 42.3743 91.8855 42.3743 91.6816C42.3743 91.4081 42.4841 91.1459 42.6797 90.9525C42.8753 90.7592 43.1406 90.6506 43.4172 90.6506M44.5759 91.6816C44.5768 91.4538 44.5092 91.231 44.3817 91.0413C44.2542 90.8516 44.0726 90.7036 43.86 90.6161C43.6473 90.5286 43.4131 90.5055 43.1872 90.5497C42.9612 90.594 42.7536 90.7035 42.5907 90.8646C42.4279 91.0256 42.317 91.2308 42.2723 91.4542C42.2275 91.6776 42.2509 91.9091 42.3394 92.1193C42.4279 92.3296 42.5777 92.5091 42.7695 92.6351C42.9614 92.7611 43.1868 92.8279 43.4172 92.8271C43.7245 92.8271 44.0192 92.7064 44.2366 92.4916C44.4539 92.2768 44.5759 91.9854 44.5759 91.6816Z" fill="#335F5B"/>
<path d="M41.7907 92.8315H41.6458C41.419 92.49 41.2982 92.0904 41.2982 91.6819C41.2982 91.2733 41.419 90.8737 41.6458 90.5322H41.7907C41.5457 90.8666 41.4138 91.269 41.4138 91.6819C41.4138 92.0948 41.5457 92.4971 41.7907 92.8315" fill="#335F5B"/>
<path d="M45.0436 92.8315C45.2868 92.4964 45.4176 92.0943 45.4176 91.6819C45.4176 91.2694 45.2868 90.8673 45.0436 90.5322H45.1884C45.4194 90.872 45.542 91.2725 45.5402 91.6819C45.5407 92.0905 45.4198 92.4902 45.1926 92.8315H45.0436Z" fill="#335F5B"/>
<path d="M41.89 91.6736C41.8906 91.8926 41.9394 92.1089 42.0331 92.3074C42.1267 92.5059 42.2629 92.682 42.4322 92.8232H42.2542C41.9484 92.517 41.777 92.1039 41.777 91.6736C41.777 91.2432 41.9484 90.8302 42.2542 90.5239H42.4281C42.2583 90.6648 42.1218 90.8408 42.0282 91.0394C41.9345 91.238 41.8859 91.4544 41.8859 91.6736" fill="#335F5B"/>
<path d="M44.4021 92.8315C44.5702 92.6895 44.7053 92.5132 44.7982 92.3148C44.891 92.1164 44.9394 91.9005 44.9401 91.6819C44.94 91.4628 44.8915 91.2463 44.7979 91.0477C44.7042 90.8491 44.5677 90.6731 44.3979 90.5322H44.5717C44.8775 90.8385 45.049 91.2515 45.049 91.6819C45.049 92.1122 44.8775 92.5253 44.5717 92.8315H44.4021Z" fill="#335F5B"/>
<path d="M42.6929 91.6735C42.6929 91.5319 42.7353 91.3935 42.8149 91.2757C42.8945 91.158 43.0076 91.0662 43.1399 91.012C43.2723 90.9578 43.4179 90.9436 43.5584 90.9713C43.6988 90.9989 43.8279 91.0671 43.9292 91.1672C44.0305 91.2674 44.0995 91.3949 44.1274 91.5338C44.1554 91.6727 44.141 91.8166 44.0862 91.9475C44.0314 92.0783 43.9385 92.1901 43.8194 92.2688C43.7003 92.3475 43.5604 92.3895 43.4171 92.3895C43.225 92.3895 43.0408 92.314 42.905 92.1798C42.7692 92.0455 42.6929 91.8634 42.6929 91.6735" fill="#335F5B"/>
<path d="M30.4761 35.7947C30.0289 36.2288 29.4267 36.4713 28.7999 36.4697C28.4061 36.4698 28.0182 36.3746 27.6701 36.1924C27.3221 36.0102 27.0245 35.7465 26.8032 35.4243C26.582 35.1022 26.4439 34.7315 26.401 34.3444C26.3581 33.9574 26.4117 33.5658 26.5571 33.204C26.7025 32.8421 26.9352 32.521 27.2351 32.2685C27.5349 32.0161 27.8928 31.8401 28.2773 31.7558C28.6618 31.6716 29.0613 31.6816 29.441 31.7852C29.8206 31.8887 30.1689 32.0826 30.4553 32.3498L30.9271 31.867C30.4872 31.4551 29.9344 31.18 29.3376 31.0761C28.7408 30.9722 28.1262 31.044 27.5704 31.2825C27.0145 31.521 26.5418 31.9158 26.211 32.4178C25.8802 32.9198 25.706 33.5068 25.7099 34.1058C25.7138 34.7049 25.8958 35.2896 26.2331 35.7873C26.5705 36.285 27.0483 36.6736 27.6073 36.905C28.1663 37.1364 28.7817 37.2003 29.3771 37.0887C29.9725 36.9771 30.5216 36.695 30.9561 36.2774L30.4761 35.7947ZM48.073 32.9308L46.5169 36.1302L44.965 32.9308H44.2283L46.5128 37.4926L48.8014 32.9308H48.073ZM50.97 34.9764C50.9624 35.2677 51.0164 35.5574 51.1285 35.8269C51.2406 36.0963 51.4083 36.3398 51.621 36.5415C51.8337 36.7433 52.0866 36.899 52.3635 36.9986C52.6405 37.0983 52.9355 37.1397 53.2296 37.1202C53.5542 37.1359 53.8787 37.0875 54.1842 36.9779C54.4898 36.8683 54.7702 36.6998 55.0092 36.482L54.5953 35.9951C54.2231 36.3383 53.7302 36.5247 53.2213 36.5147C52.8397 36.5428 52.4618 36.4246 52.1659 36.1847C51.87 35.9447 51.6789 35.6015 51.6321 35.226H55.2823C55.2871 35.1429 55.2871 35.0595 55.2823 34.9764C55.2823 34.4067 55.0534 33.8604 54.6459 33.4576C54.2385 33.0548 53.6858 32.8285 53.1095 32.8285C52.5333 32.8285 51.9807 33.0548 51.5732 33.4576C51.1657 33.8604 50.9368 34.4067 50.9368 34.9764M51.6238 34.6778C51.673 34.3265 51.8529 34.006 52.1285 33.779C52.404 33.552 52.7553 33.4348 53.1137 33.4504C53.4732 33.43 53.8271 33.5454 54.1037 33.7733C54.3803 34.0012 54.559 34.3245 54.6035 34.6778H51.6238ZM37.6564 34.9764C37.6482 35.2675 37.7016 35.5571 37.8133 35.8266C37.9249 36.0961 38.0923 36.3395 38.3046 36.5414C38.517 36.7432 38.7696 36.8989 39.0464 36.9986C39.3232 37.0983 39.6179 37.1397 39.9118 37.1202C40.5684 37.1492 41.2099 36.9197 41.6956 36.482L41.2817 35.9951C40.9107 36.3402 40.417 36.5269 39.9077 36.5147C39.5265 36.5427 39.1491 36.4244 38.8539 36.1844C38.5587 35.9444 38.3685 35.6011 38.3227 35.226H42.0018C42.0066 35.1429 42.0066 35.0595 42.0018 34.9764C41.9774 34.4235 41.738 33.9012 41.3336 33.5185C40.9292 33.1358 40.391 32.9222 39.8312 32.9222C39.2713 32.9222 38.7331 33.1358 38.3287 33.5185C37.9243 33.9012 37.6849 34.4235 37.6605 34.9764M38.3475 34.6778C38.409 34.3318 38.5918 34.0183 38.8639 33.7924C39.136 33.5665 39.48 33.4427 39.8353 33.4427C40.1906 33.4427 40.5346 33.5665 40.8067 33.7924C41.0788 34.0183 41.2616 34.3318 41.3231 34.6778H38.3475ZM61.0845 32.8981C60.9101 32.8534 60.7307 32.8313 60.5506 32.8326C60.2165 32.8567 59.8957 32.9714 59.6234 33.1642C59.3511 33.3569 59.1377 33.6201 59.0069 33.9249V32.9144H58.3365V37.0384H59.0069V35.2669C59.0069 34.2686 59.5491 33.4626 60.5009 33.4626C60.6988 33.461 60.8957 33.49 61.0845 33.5486V32.8981ZM34.598 37.0384H33.9276V31.1224H34.598V37.0384Z" fill="#335F5B"/>
</g>
<defs>
<clipPath id="clip0_82_1426">
<rect width="79" height="204" fill="white"/>
</clipPath>
</defs>
</svg>
