<svg width="100%" height="100%" viewBox="0 0 47 191" fill="none" xmlns="http://www.w3.org/2000/svg">
<rect x="0.5" y="8.66016" width="46" height="181.84" fill="#F2F5F5" stroke="#335F5B"/>
<rect x="0.5" y="0.5" width="46" height="10.4763" rx="4.5" fill="#F2F5F5" stroke="#335F5B"/>
<mask id="path-3-outside-1_89_1612" maskUnits="userSpaceOnUse" x="3.1214" y="27.1655" width="41" height="84" fill="black">
<rect fill="white" x="3.1214" y="27.1655" width="41" height="84"/>
<path fill-rule="evenodd" clip-rule="evenodd" d="M23.37 30.0868H11.9491V29.1655C10.2382 29.2094 6.27724 29.692 4.1214 31.2714V104.45C5.87516 106.161 9.89597 109.583 11.9491 109.583H23.37H34.7908C36.8439 109.583 40.8647 106.161 42.6185 104.45V31.2714C40.4627 29.692 36.5017 29.2094 34.7908 29.1655V30.0868L23.37 30.0868Z"/>
</mask>
<path fill-rule="evenodd" clip-rule="evenodd" d="M23.37 30.0868H11.9491V29.1655C10.2382 29.2094 6.27724 29.692 4.1214 31.2714V104.45C5.87516 106.161 9.89597 109.583 11.9491 109.583H23.37H34.7908C36.8439 109.583 40.8647 106.161 42.6185 104.45V31.2714C40.4627 29.692 36.5017 29.2094 34.7908 29.1655V30.0868L23.37 30.0868Z" fill="#F2F5F5"/>
<path d="M11.9491 30.0868H10.9491V31.0868H11.9491V30.0868ZM23.37 30.0868L23.37 29.0868H23.37V30.0868ZM11.9491 29.1655H12.9491V28.1396L11.9235 28.1659L11.9491 29.1655ZM4.1214 31.2714L3.53042 30.4647L3.1214 30.7643V31.2714H4.1214ZM4.1214 104.45H3.1214V104.871L3.42307 105.165L4.1214 104.45ZM42.6185 104.45L43.3168 105.165L43.6185 104.871V104.45H42.6185ZM42.6185 31.2714H43.6185V30.7643L43.2095 30.4647L42.6185 31.2714ZM34.7908 29.1655L34.8164 28.1659L33.7908 28.1396V29.1655H34.7908ZM34.7908 30.0868L34.7908 31.0868L35.7908 31.0868V30.0868H34.7908ZM11.9491 31.0868H23.37V29.0868H11.9491V31.0868ZM10.9491 29.1655V30.0868H12.9491V29.1655H10.9491ZM4.71238 32.0781C5.62214 31.4116 6.98929 30.9328 8.41655 30.6194C9.82348 30.3104 11.1779 30.1856 11.9748 30.1652L11.9235 28.1659C11.0094 28.1893 9.52787 28.3277 7.98763 28.6659C6.46773 28.9996 4.77649 29.5518 3.53042 30.4647L4.71238 32.0781ZM5.1214 104.45V31.2714H3.1214V104.45H5.1214ZM11.9491 108.583C11.6738 108.583 11.2082 108.455 10.5547 108.127C9.92703 107.813 9.22494 107.364 8.50838 106.847C7.07633 105.813 5.6704 104.564 4.81973 103.734L3.42307 105.165C4.32616 106.047 5.80751 107.364 7.3376 108.469C8.1021 109.021 8.8998 109.535 9.65824 109.915C10.391 110.283 11.1979 110.583 11.9491 110.583V108.583ZM23.37 108.583H11.9491V110.583H23.37V108.583ZM23.37 110.583H34.7908V108.583H23.37V110.583ZM34.7908 110.583C35.542 110.583 36.3489 110.283 37.0817 109.915C37.8401 109.535 38.6378 109.021 39.4023 108.469C40.9324 107.364 42.4138 106.047 43.3168 105.165L41.9202 103.734C41.0695 104.564 39.6636 105.813 38.2315 106.847C37.515 107.364 36.8129 107.813 36.1852 108.127C35.5317 108.455 35.0661 108.583 34.7908 108.583V110.583ZM43.6185 104.45V31.2714H41.6185V104.45H43.6185ZM43.2095 30.4647C41.9634 29.5518 40.2722 28.9996 38.7523 28.6659C37.212 28.3277 35.7305 28.1893 34.8164 28.1659L34.7651 30.1652C35.562 30.1856 36.9164 30.3104 38.3234 30.6194C39.7506 30.9328 41.1178 31.4116 42.0275 32.0781L43.2095 30.4647ZM33.7908 29.1655V30.0868H35.7908V29.1655H33.7908ZM34.7908 29.0868L23.37 29.0868L23.37 31.0868L34.7908 31.0868L34.7908 29.0868Z" fill="#335F5B" mask="url(#path-3-outside-1_89_1612)"/>
<line x1="12.4249" y1="29.9556" x2="12.4249" y2="109.715" stroke="#335F5B"/>
<line x1="35.0549" y1="29.9556" x2="35.0549" y2="109.715" stroke="#335F5B"/>
<rect x="12.587" y="49.562" width="21.8261" height="36.6701" fill="#F2F5F5" stroke="#335F5B"/>
<path d="M32.2341 74.3101C32.2341 79.3459 28.2017 83.418 23.2399 83.418C18.2781 83.418 14.2457 79.3459 14.2457 74.3101C14.2457 69.2743 18.2781 65.2021 23.2399 65.2021C28.2017 65.2021 32.2341 69.2743 32.2341 74.3101Z" stroke="#335F5B"/>
<path d="M29.6329 74.3101C29.6329 77.8921 26.7651 80.7857 23.2399 80.7857C19.7147 80.7857 16.8468 77.8921 16.8468 74.3101C16.8468 70.7281 19.7147 67.8345 23.2399 67.8345C26.7651 67.8345 29.6329 70.7281 29.6329 74.3101Z" stroke="#335F5B"/>
<g clip-path="url(#clip0_89_1612)">
<path d="M18.5206 45.7809H18.1609V42.6341H18.5206V45.7809ZM32.7341 43.5892C32.6537 43.5708 32.5827 43.5545 32.4481 43.5545C32.0837 43.5545 31.7387 43.8428 31.6201 44.133V43.597H31.2604V45.7803H31.6201V44.8416C31.6201 44.3134 31.9108 43.8885 32.4199 43.8885C32.5412 43.8885 32.6289 43.9036 32.7334 43.9336V43.5892H32.7341ZM20.5383 44.5304C20.6039 44.1324 20.9154 43.8755 21.3368 43.8755C21.7621 43.8755 22.0736 44.1278 22.1353 44.5304H20.5383ZM20.1698 44.6893C20.1698 45.3528 20.6615 45.8241 21.381 45.8241C21.9296 45.8241 22.2364 45.5888 22.3376 45.4861L22.1225 45.2292C22.0522 45.2894 21.8197 45.5031 21.3857 45.5031C20.9208 45.5031 20.5918 45.2377 20.5342 44.8226H22.491C22.4956 44.7802 22.4997 44.7416 22.4997 44.6899C22.4997 44.035 22.0214 43.5552 21.3368 43.5552C20.6568 43.5545 20.1698 44.0337 20.1698 44.6893ZM27.6624 44.5304C27.7281 44.1324 28.0396 43.8755 28.4609 43.8755C28.8863 43.8755 29.1978 44.1278 29.2594 44.5304H27.6624ZM27.294 44.6893C27.294 45.3528 27.7857 45.8241 28.5052 45.8241C29.0538 45.8241 29.3606 45.5888 29.4617 45.4861L29.2467 45.2292C29.1764 45.2894 28.9439 45.5031 28.5098 45.5031C28.0449 45.5031 27.716 45.2377 27.6584 44.8226H29.6151C29.6198 44.7802 29.6239 44.7416 29.6239 44.6899C29.6239 44.035 29.1456 43.5552 28.4609 43.5552C27.781 43.5545 27.294 44.0337 27.294 44.6893ZM25.7372 43.597L24.9039 45.29L24.0699 43.597H23.6753L24.9019 46.0123L26.1284 43.597H25.7372V43.597ZM16.3006 45.1122C16.0681 45.3319 15.7513 45.4678 15.4016 45.4678C14.6882 45.4678 14.1094 44.903 14.1094 44.2069C14.1094 43.5107 14.6882 42.9459 15.4016 42.9459C15.7439 42.9459 16.0547 43.076 16.2859 43.2878L16.5384 43.0322C16.2416 42.7583 15.8424 42.5903 15.4016 42.5903C14.4872 42.5903 13.7457 43.314 13.7457 44.2062C13.7457 45.0985 14.4872 45.8221 15.4016 45.8221C15.8498 45.8221 16.2564 45.6482 16.5545 45.3658L16.3006 45.1122Z" fill="#335F5B"/>
</g>
<defs>
<clipPath id="clip0_89_1612">
<rect width="18.9884" height="3.422" fill="white" transform="translate(13.7457 42.5903)"/>
</clipPath>
</defs>
</svg>
